<?xml version="1.0" encoding="utf-8"?>
<!-- Generator: Adobe Illustrator 22.1.0, SVG Export Plug-In . SVG Version: 6.00 Build 0)  -->
<svg version="1.1" id="图层_1" xmlns="http://www.w3.org/2000/svg" xmlns:xlink="http://www.w3.org/1999/xlink" x="0px" y="0px"
	 viewBox="0 0 26 26" style="enable-background:new 0 0 26 26;" xml:space="preserve">
<style type="text/css">
	.st0{fill:#FFFFFF;}
	.st1{fill:#DF6160;}
	.st2{fill:#226E44;}
	.st3{fill:#1D57A7;}
	.st4{fill:#DE5119;}
	.st5{font-family:'MicrosoftYaHei-Bold';}
	.st6{font-size:7.454px;}
	.st7{fill:none;}
	.st8{fill:#819191;}
	.st9{clip-path:url(#SVGID_2_);fill:#1AA69E;}
	.st10{clip-path:url(#SVGID_2_);fill:#54B0DF;}
	.st11{fill:#11A196;}
</style>
<path class="st0" d="M-310,6.8c0,0-0.4-0.5-0.4,1.1c0,0.7,0,0.7,0,20.8c0,0-2.9,1.4,0,1.4s18,0,18,0V12.5l-5.2-6.1L-310,6.8z"/>
<path class="st1" d="M-300.6,18.9h6.1v1.7h-6.1V18.9z M-300.6,15.1h6.1v1.8h-6.1V15.1z M-300.6,22.6h6.1v1.7h-6.1V22.6z
	 M-300.6,22.6"/>
<path class="st2" d="M-305.9,22.6"/>
<rect x="-191.3" y="61.6" class="st0" width="196.7" height="30"/>
<path class="st0" d="M-78.3,1.4c0,0-0.4-0.3-0.4,1.1s0,3.1,0,3.1v17c0,0-0.8,1.4-0.2,1.6c0.6,0.2,17.1,0,17.1,0l0-17.1l0-2l-5.4-4.6
	L-78.3,1.4z"/>
<rect x="-86.1" y="5.4" class="st3" width="14.4" height="17.2"/>
<path class="st3" d="M-70.2,13.5h6v1.7h-6V13.5z M-70.2,9.7h6v1.7h-6V9.7z M-70.2,17.2h6v1.7h-6V17.2z M-70.2,17.2"/>
<path class="st0" d="M-78.9,12.4"/>
<path class="st3" d="M-67.5,7.2h5.7c0,0.1,0,0.9,0,1v15.5c0,0.2-0.2,0.4-0.4,0.4h-16.1c-0.1,0-0.2,0-0.3-0.1
	c-0.1-0.1-0.1-0.2-0.1-0.3v-1h-1.7v1.2c0,1,0.8,1.8,1.8,1.8h16.6c1,0,1.8-0.8,1.8-1.8V8.1c0-1-0.6-3-1.3-3.8l-3.2-3.3
	c-0.7-0.7-2.1-1.3-3.1-1.3h-10.8c-1,0-1.8,0.8-1.8,1.8v3.7h1.7V1.9c0-0.2,0.2-0.4,0.4-0.4h10.7 M-62.6,5.7h-3.2V2.3"/>
<path class="st0" d="M-76.6,14.4h2.9c0-0.2,0-0.4,0-0.6c0-1-0.3-2-0.7-2.8c0.5-1.3,0.5-2.4-0.2-3.1c-0.6-0.6-2.2-0.5-4.1,0.3
	c-0.1,0-0.3,0-0.4,0c-2.5,0-4.6,1.8-5.2,4.2c0.8-1.1,1.6-1.8,2.7-2.4c-0.1,0.1-0.7,0.7-0.8,0.8c-2.9,3.1-3.9,7-2.9,8.1
	c0.8,0.8,2.1,0.7,3.7-0.1c0.7,0.4,1.6,0.6,2.4,0.6c2.4,0,4.4-1.6,5.1-3.8h-2.9c-0.4,0.8-1.2,1.3-2.1,1.3c-0.9,0-1.7-0.5-2.1-1.3
	c-0.2-0.4-0.3-0.8-0.3-1.2v0L-76.6,14.4L-76.6,14.4L-76.6,14.4z M-84.4,18.7c-0.5-0.5-0.4-1.7,0.3-3.1c0.4,1.2,1.2,2.3,2.3,2.9
	C-83,19.1-83.9,19.2-84.4,18.7z M-81.3,12.9c0.1-1.2,1.1-2.2,2.3-2.2c1.2,0,2.2,1,2.3,2.2H-81.3z M-77,8.6c1.1-0.5,2-0.6,2.5-0.1
	c0.4,0.4,0.4,1.2,0,2.2C-75.1,9.8-76,9-77,8.6z"/>
<path class="st1" d="M-298.9,12.5h5.9c0,0.1,0,0.9,0,1v15.7c0,0.2-0.2,0.4-0.4,0.4H-310c-0.1,0-0.2,0-0.3-0.1
	c-0.1-0.1-0.1-0.2-0.1-0.3v-2.8h-1.7v3.1c0,1,0.8,1.9,1.9,1.9h17.2c1,0,1.9-0.8,1.9-1.9v-16c0-1-0.6-3.1-1.3-3.8l-3.3-3.3
	C-296.6,5.6-298,5-299,5h-11.2c-1,0-1.8,0.8-1.9,1.9v4.7h1.7V7.2c0-0.2,0.2-0.4,0.4-0.4h11.1 M-293.8,11h-3.4V7.6"/>
<rect x="-317.9" y="11" class="st1" width="16.1" height="16.1"/>
<text transform="matrix(0.9819 0 0 1 -317.5553 21.2867)" class="st0 st5" style="font-size:7.537px;">PDF</text>
<path class="st0" d="M7.9,1.5c0,0-0.4-0.5-0.4,1.1c0,0.7,0,0.7,0,20.5c0,0-2.8,1.4,0,1.4s17.4,0,17.4,0V7.1l-5-6L7.9,1.5z"/>
<path class="st4" d="M16.9,13.5h5.9v1.7h-5.9V13.5z M16.9,9.7h5.9v1.7h-5.9V9.7z M16.9,17.2h5.9v1.7h-5.9V17.2z M16.9,17.2"/>
<path class="st2" d="M11.8,17.1"/>
<path class="st4" d="M18.6,7.4h5.7c0,0.1,0,0.9,0,1v15.5c0,0.2-0.2,0.4-0.4,0.4H7.9c-0.1,0-0.2,0-0.3-0.1c-0.1-0.1-0.1-0.2-0.1-0.3
	v-2.8H5.8v3.1c0,1,0.8,1.8,1.8,1.8h16.6c1,0,1.8-0.8,1.8-1.8V8.4c0-1-0.6-3-1.3-3.8l-3.2-3.3C20.8,0.6,19.4,0,18.4,0H7.6
	c-1,0-1.8,0.8-1.8,1.8v4.7h1.7V2.1c0-0.2,0.2-0.4,0.4-0.4h10.7 M23.5,5.9h-3.2V2.6"/>
<rect x="0" y="5.7" class="st4" width="15.5" height="15.9"/>
<text transform="matrix(0.9579 0 0 1 0.8367 15.8577)" class="st0 st5 st6">PPT</text>
<path class="st0" d="M-34.5,1.5c0,0-0.4-0.5-0.4,1.1c0,0.7,0,0.7,0,20.5c0,0-2.8,1.4,0,1.4s17.4,0,17.4,0V7.1l-5-6L-34.5,1.5z"/>
<path class="st1" d="M-25.4,13.5h5.9v1.7h-5.9V13.5z M-25.4,9.7h5.9v1.7h-5.9V9.7z M-25.4,17.2h5.9v1.7h-5.9V17.2z M-25.4,17.2"/>
<path class="st2" d="M-30.5,17.1"/>
<path class="st1" d="M-23.8,7.4h5.7c0,0.1,0,0.9,0,1v15.5c0,0.2-0.2,0.4-0.4,0.4h-16.1c-0.1,0-0.2,0-0.3-0.1
	c-0.1-0.1-0.1-0.2-0.1-0.3v-2.8h-1.7v3.1c0,1,0.8,1.8,1.8,1.8h16.6c1,0,1.8-0.8,1.8-1.8V8.4c0-1-0.6-3-1.3-3.8l-3.2-3.3
	C-21.5,0.6-22.9,0-23.9,0h-10.8c-1,0-1.8,0.8-1.8,1.8v4.7h1.7V2.1c0-0.2,0.2-0.4,0.4-0.4h10.7 M-18.9,5.9h-3.2V2.6"/>
<rect x="-42.3" y="5.7" class="st1" width="15.5" height="15.9"/>
<text transform="matrix(0.9579 0 0 1 -41.7457 15.8574)" class="st0 st5 st6">PDF</text>
<rect id="_x3C_切片_x3E_" x="-269.7" y="-13.2" class="st7" width="28.3" height="28.3"/>
<path class="st0" d="M-119.4,1.3c0,0-0.4-0.5-0.4,1.1c0,0.7,0,0.7,0,20.5c0,0-3.1,1.4,0,1.4c3.1,0,18.9,0,18.9,0V6.9l-5.4-6
	L-119.4,1.3z"/>
<path class="st2" d="M-109.6,13.1h6.4v1.7h-6.4V13.1z M-109.6,9.4h6.4v1.7h-6.4V9.4z M-109.6,16.8h6.4v1.7h-6.4V16.8z M-109.6,16.8"
	/>
<path class="st3" d="M-114.6,16.8"/>
<rect x="-125.3" y="7.6" class="st2" width="12.5" height="12.2"/>
<polygon class="st0" points="-117.4,17.2 -117.4,17.2 -119.2,14.7 -119.9,15.8 -119.2,15.8 -119.2,17.2 -123,17.2 -120.2,13.2 
	-122.7,9.6 -120.6,9.6 -119.1,11.7 -117.6,9.6 -115.6,9.6 -118.1,13.2 -115.2,17.2 "/>
<path class="st2" d="M-107.4,6.9h6.2c0,0.1,0,0.9,0,1v15.5c0,0.2-0.2,0.4-0.4,0.4h-17.4c-0.1,0-0.2,0-0.3-0.1
	c-0.1-0.1-0.1-0.2-0.1-0.3v-3.7h-1.8v4c0,1,0.9,1.8,1.9,1.8h17.9c1.1,0,1.9-0.8,1.9-1.8V7.9c0-1-0.6-3-1.4-3.8l-3.5-3.3
	c-0.8-0.7-2.3-1.3-3.3-1.3h-11.7c-1.1,0-1.9,0.8-1.9,1.8v6.5h1.8V1.6c0-0.2,0.2-0.4,0.4-0.4h11.6 M-102.1,5.4h-3.5V2.1"/>
<polygon class="st0" points="-154,1.5 -154,23.4 -136.2,23.4 -136.2,6.9 -142.1,1.5 "/>
<path class="st8" d="M-140.5-0.5h-15.7v7.3h2.2V1.5h11.9v5.5h5.9v16.5H-154v-6.1h-2.2v8.1h22V5.1L-140.5-0.5z M-140.5-0.5"/>
<path class="st8" d="M-142.5,9.7h4v1.9h-4V9.7z M-142.5,14.4h4v1.9h-4V14.4z M-142.5,19h4v1.9h-4V19z M-142.5,19"/>
<g>
	<defs>
		<rect id="SVGID_1_" x="-160.2" y="-0.6" width="26" height="26"/>
	</defs>
	<clipPath id="SVGID_2_">
		<use xlink:href="#SVGID_1_"  style="overflow:visible;"/>
	</clipPath>
	<path class="st9" d="M-154,20.9h9.2V9.4h-2.2v9.5h-7V20.9z M-154,20.9"/>
	<path class="st10" d="M-148.8,17.3V6.7h-11.3v10.5H-148.8z M-156.2,15.7h-1.9V8.3h1.9V13l1.9-1.7l1.9,1.7V8.4h1.9v7.4h-1.9
		l-1.9-1.7L-156.2,15.7L-156.2,15.7z M-156.2,15.7"/>
	<rect x="-160.2" y="6.7" class="st9" width="11.3" height="10.5"/>
</g>
<path class="st0" d="M-151,10.3h-2.6v5.9h-2v-5.9h-2.7V8.4h7.2V10.3z M-151,10.3"/>
<polygon class="st0" points="-184.6,1.3 -184.6,23.6 -166.6,23.6 -166.6,6.8 -172.6,1.3 "/>
<path class="st11" d="M-171-0.6h-15.8v7.3h2.2V1.5h11.9v5.5h5.9v16.5h-17.9v-6.1h-2.2v8.2h22.1V5.1L-171-0.6z M-171-0.6"/>
<path class="st11" d="M-173,9.7h4.1v1.9h-4.1V9.7z M-173,14.4h4.1v1.9h-4.1V14.4z M-173,19.1h4.1v1.9h-4.1V19.1z M-173,19.1"/>
<rect x="-190.7" y="6.4" class="st11" width="11.4" height="11.9"/>
<g>
	<polygon class="st0" points="-185.1,8.2 -187.1,11.6 -183.1,11.6 	"/>
	<rect x="-185.8" y="11.6" class="st0" width="1.4" height="5"/>
</g>
</svg>
