<?xml version="1.0" encoding="utf-8"?>
<!-- Generator: Adobe Illustrator 22.1.0, SVG Export Plug-In . SVG Version: 6.00 Build 0)  -->
<svg version="1.1" id="图层_1" xmlns="http://www.w3.org/2000/svg" xmlns:xlink="http://www.w3.org/1999/xlink" x="0px" y="0px"
	 viewBox="0 0 26 26" style="enable-background:new 0 0 26 26;" xml:space="preserve">
<style type="text/css">
	.st0{fill:#FFFFFF;}
	.st1{fill:#DF6160;}
	.st2{fill:#226E44;}
	.st3{fill:#1D57A7;}
	.st4{fill:#DE5119;}
	.st5{fill:none;}
	.st6{fill:#819191;}
	.st7{clip-path:url(#SVGID_2_);fill:#1AA69E;}
	.st8{clip-path:url(#SVGID_2_);fill:#54B0DF;}
	.st9{fill:#11A196;}
</style>
<polygon class="st0" points="6.1,1.9 6.1,24.2 24.1,24.2 24.1,7.5 18.1,1.9 "/>
<path class="st9" d="M19.7,0H3.9v7.3h2.2V2H18v5.5h5.9V24H6.1v-6.1H3.9V26H26V5.7L19.7,0z M19.7,0"/>
<path class="st9" d="M17.7,10.3h4.1v1.9h-4.1V10.3z M17.7,15.1h4.1V17h-4.1V15.1z M17.7,19.7h4.1v1.9h-4.1V19.7z M17.7,19.7"/>
<g>
	<rect x="0" y="7.1" class="st9" width="11.4" height="11.9"/>
	<polygon class="st0" points="7.7,12.2 5.7,8.8 3.7,12.2 5,12.2 5,17.2 6.4,17.2 6.4,12.2 	"/>
</g>
</svg>
