<?xml version="1.0" encoding="utf-8"?>
<!-- Generator: Adobe Illustrator 22.1.0, SVG Export Plug-In . SVG Version: 6.00 Build 0)  -->
<svg version="1.1" id="图层_1" xmlns="http://www.w3.org/2000/svg" xmlns:xlink="http://www.w3.org/1999/xlink" x="0px" y="0px"
	 viewBox="0 0 26 26" style="enable-background:new 0 0 26 26;" xml:space="preserve">
<style type="text/css">
	.st0{fill:#FFFFFF;}
	.st1{fill:#DF6160;}
	.st2{fill:#226E44;}
	.st3{fill:#1D57A7;}
	.st4{fill:none;}
	.st5{fill:#819191;}
	.st6{clip-path:url(#SVGID_2_);fill:#1AA69E;}
	.st7{clip-path:url(#SVGID_2_);fill:#54B0DF;}
	.st8{fill:#11A196;}
</style>
<path class="st0" d="M5.9,1.8c0,0-0.4-0.5-0.4,1.1c0,0.7,0,0.7,0,20.5c0,0-3.1,1.4,0,1.4s18.9,0,18.9,0V7.4l-5.4-6L5.9,1.8z"/>
<path class="st2" d="M15.7,13.7h6.4v1.7h-6.4V13.7z M15.7,10h6.4v1.7h-6.4V10z M15.7,17.4h6.4v1.7h-6.4V17.4z M15.7,17.4"/>
<rect y="8.1" class="st2" width="12.5" height="12.2"/>
<polygon class="st0" points="7.9,17.8 7.9,17.7 6.2,15.3 5.4,16.4 6.2,16.4 6.2,17.8 2.3,17.8 5.1,13.7 2.6,10.1 4.7,10.1 6.2,12.2 
	7.7,10.1 9.8,10.1 7.3,13.7 10.1,17.8 "/>
<path class="st2" d="M18,7.5h6.2c0,0.1,0,0.9,0,1V24c0,0.2-0.2,0.4-0.4,0.4H6.4c-0.1,0-0.2,0-0.3-0.1C6,24.1,6,24.1,6,24v-3.7H4.2v4
	c0,1,0.9,1.8,1.9,1.8h17.9c1.1,0,1.9-0.8,1.9-1.8V8.4c0-1-0.6-3-1.4-3.8l-3.5-3.3c-0.8-0.7-2.3-1.3-3.3-1.3H6.1
	c-1.1,0-1.9,0.8-1.9,1.8v6.5H6V2.2C6,2,6.2,1.8,6.4,1.8h11.6 M23.3,6h-3.5V2.6"/>
</svg>
