<?xml version="1.0" encoding="utf-8"?>
<!-- Generator: Adobe Illustrator 22.1.0, SVG Export Plug-In . SVG Version: 6.00 Build 0)  -->
<svg version="1.1" id="图层_1" xmlns="http://www.w3.org/2000/svg" xmlns:xlink="http://www.w3.org/1999/xlink" x="0px" y="0px"
	 viewBox="0 0 26 26" style="enable-background:new 0 0 26 26;" xml:space="preserve">
<style type="text/css">
	.st0{fill:#FFFFFF;}
	.st1{fill:#DF6160;}
	.st2{fill:#226E44;}
	.st3{fill:#1D529C;}
	.st4{fill:#DE5119;}
	.st5{fill:none;}
	.st6{fill:#1D57A7;}
	.st7{fill:#819191;}
	.st8{clip-path:url(#SVGID_2_);fill:#1AA69E;}
	.st9{clip-path:url(#SVGID_2_);fill:#54B0DF;}
	.st10{fill:#11A196;}
</style>
<path class="st0" d="M6,1.8c0,0-0.4-0.5-0.4,1.1c0,0.7,0,0.7,0,20.5c0,0-3.1,1.4,0,1.4s18.9,0,18.9,0V7.4l-5.4-6L6,1.8z"/>
<path class="st6" d="M15.8,13.7h6.4v1.7h-6.4V13.7z M15.8,10h6.4v1.7h-6.4V10z M15.8,17.4h6.4v1.7h-6.4V17.4z M15.8,17.4"/>
<rect x="0" y="8.2" class="st6" width="12.5" height="12.2"/>
<path class="st6" d="M18,7.5h6.2c0,0.1,0,0.9,0,1V24c0,0.2-0.2,0.4-0.4,0.4H6.5c-0.1,0-0.2,0-0.3-0.1c-0.1-0.1-0.1-0.2-0.1-0.3v-3.7
	H4.3v4c0,1,0.9,1.8,1.9,1.8h17.9c1.1,0,1.9-0.8,1.9-1.8V8.4c0-1-0.6-3-1.4-3.8l-3.5-3.3c-0.8-0.7-2.3-1.3-3.3-1.3H6.2
	c-1.1,0-1.9,0.8-1.9,1.8v6.5h1.8V2.2c0-0.2,0.2-0.4,0.4-0.4H18 M23.4,6h-3.5V2.6"/>
<path class="st0" d="M8.8,15.1h2.4c0-0.2,0-0.3,0-0.5c0-0.9-0.2-1.6-0.6-2.3c0.4-1.1,0.4-2-0.1-2.6C10,9.1,8.6,9.2,7.1,9.9
	c-0.1,0-0.2,0-0.3,0c-2.1,0-3.9,1.5-4.3,3.5c0.7-0.9,1.3-1.5,2.3-2c-0.1,0.1-0.6,0.6-0.7,0.7c-2.4,2.5-3.2,5.9-2.4,6.7
	c0.6,0.7,1.8,0.5,3.1-0.1c0.6,0.3,1.3,0.5,2,0.5c2,0,3.6-1.3,4.2-3.1H8.6c-0.3,0.6-1,1.1-1.7,1.1c-0.8,0-1.4-0.4-1.7-1.1
	c-0.2-0.3-0.2-0.6-0.2-1v0L8.8,15.1L8.8,15.1L8.8,15.1z M2.3,18.7c-0.4-0.5-0.3-1.4,0.3-2.6c0.3,1,1,1.9,1.9,2.4
	C3.4,19,2.7,19.1,2.3,18.7z M4.9,13.9c0.1-1,0.9-1.9,1.9-1.9c1,0,1.8,0.8,1.9,1.9H4.9z M8.4,10.3c0.9-0.4,1.7-0.5,2-0.1
	c0.3,0.4,0.3,1,0,1.8C10,11.2,9.2,10.6,8.4,10.3z"/>
</svg>
