<?xml version="1.0" encoding="utf-8"?>
<!-- Generator: Adobe Illustrator 22.1.0, SVG Export Plug-In . SVG Version: 6.00 Build 0)  -->
<svg version="1.1" id="图层_1" xmlns="http://www.w3.org/2000/svg" xmlns:xlink="http://www.w3.org/1999/xlink" x="0px" y="0px"
	 viewBox="0 0 26 26" style="enable-background:new 0 0 26 26;" xml:space="preserve">
<style type="text/css">
	.st0{fill:#FFFFFF;}
	.st1{fill:#DF6160;}
	.st2{fill:#226E44;}
	.st3{fill:#1D57A7;}
	.st4{font-family:'MicrosoftYaHei-Bold';}
	.st5{font-size:7.454px;}
	.st6{fill:none;}
	.st7{fill:#819191;}
	.st8{clip-path:url(#SVGID_2_);fill:#1AA69E;}
	.st9{clip-path:url(#SVGID_2_);fill:#54B0DF;}
	.st10{fill:#11A196;}
</style>
<path class="st0" d="M7.9,1.8c0,0-0.4-0.5-0.4,1.1c0,0.7,0,0.7,0,20.5c0,0-2.8,1.4,0,1.4s17.5,0,17.5,0V7.4l-5-6L7.9,1.8z"/>
<path class="st1" d="M17.1,13.7h6v1.7h-6V13.7z M17.1,10h6v1.7h-6V10z M17.1,17.4h6v1.7h-6V17.4z M17.1,17.4"/>
<path class="st1" d="M18.7,7.4h5.7c0,0.1,0,0.9,0,1v15.5c0,0.2-0.2,0.4-0.4,0.4H7.9c-0.1,0-0.2,0-0.3-0.1c-0.1-0.1-0.1-0.2-0.1-0.3
	v-2.8H5.9v3.1c0,1,0.8,1.8,1.8,1.8h16.7c1,0,1.8-0.8,1.8-1.8V8.4c0-1-0.6-3-1.3-3.8l-3.2-3.3C21,0.6,19.6,0,18.6,0H7.7
	c-1,0-1.8,0.8-1.8,1.8v4.7h1.7V2.1c0-0.2,0.2-0.4,0.4-0.4h10.8 M23.7,5.9h-3.3V2.6"/>
<rect x="0" y="5.9" class="st1" width="15.6" height="15.9"/>
<text transform="matrix(0.9648 0 0 1 0.6003 16.0994)" class="st0 st4 st5">PDF</text>
</svg>
