<?xml version="1.0" encoding="utf-8"?>
<svg version="1.1" xmlns:xlink="http://www.w3.org/1999/xlink" width="30px" height="35px" xmlns="http://www.w3.org/2000/svg">
  <g transform="matrix(1 0 0 1 -585 -88 )">
    <path d="M 22.578125 1.328125  L 28.671875 7.421875  C 29.0364583333333 7.78645833333333  29.3489583333333 8.28125  29.609375 8.90625  C 29.8697916666667 9.53125  30 10.1041666666667  30 10.625  L 30 33.125  C 30 33.6458333333333  29.8177083333333 34.0885416666667  29.453125 34.453125  C 29.0885416666667 34.8177083333333  28.6458333333333 35  28.125 35  L 1.875 35  C 1.35416666666667 35  0.911458333333333 34.8177083333333  0.546875 34.453125  C 0.182291666666667 34.0885416666667  0 33.6458333333333  0 33.125  L 0 1.875  C 0 1.35416666666667  0.182291666666667 0.911458333333332  0.546875 0.546875  C 0.911458333333333 0.182291666666668  1.35416666666667 0  1.875 0  L 19.375 0  C 19.8958333333333 0  20.46875 0.130208333333335  21.09375 0.390625000000001  C 21.71875 0.651041666666666  22.2135416666667 0.963541666666665  22.578125 1.328125  Z M 20.80078125 3.0859375  C 20.64453125 2.9296875  20.3776041666667 2.78645833333333  20 2.65625  L 20 10  L 27.34375 10  C 27.2135416666667 9.62239583333333  27.0703125 9.35546875  26.9140625 9.19921875  L 20.80078125 3.0859375  Z M 3 32  L 27 32  L 27 12.5  L 19.375 12.5  C 18.8541666666667 12.5  18.4114583333333 12.3177083333333  18.046875 11.953125  C 17.6822916666667 11.5885416666667  17.5 11.1458333333333  17.5 10.625  L 17.5 3  L 3 3  L 3 32  Z M 7.5 16.875  L 7.5 15.625  C 7.5 15.4427083333333  7.55859375 15.29296875  7.67578125 15.17578125  C 7.79296875 15.05859375  7.94270833333333 15  8.125 15  L 21.875 15  C 22.0572916666667 15  22.20703125 15.05859375  22.32421875 15.17578125  C 22.44140625 15.29296875  22.5 15.4427083333333  22.5 15.625  L 22.5 16.875  C 22.5 17.0572916666667  22.44140625 17.20703125  22.32421875 17.32421875  C 22.20703125 17.44140625  22.0572916666667 17.5  21.875 17  L 8.125 17  C 7.94270833333333 17.5  7.79296875 17.44140625  7.67578125 17.32421875  C 7.55859375 17.20703125  7.5 17.0572916666667  7.5 16.875  Z M 8.125 20  L 21.875 20  C 22.0572916666667 20  22.20703125 20.05859375  22.32421875 20.17578125  C 22.44140625 20.29296875  22.5 20.4427083333333  22.5 20.625  L 22.5 21.875  C 22.5 22.0572916666667  22.44140625 22.20703125  22.32421875 22.32421875  C 22.20703125 22.44140625  22.0572916666667 22.5  21.875 22  L 8.125 22  C 7.94270833333333 22.5  7.79296875 22.44140625  7.67578125 22.32421875  C 7.55859375 22.20703125  7.5 22.0572916666667  7.5 21.875  L 7.5 20.625  C 7.5 20.4427083333333  7.55859375 20.29296875  7.67578125 20.17578125  C 7.79296875 20.05859375  7.94270833333333 20  8.125 20  Z M 8.125 25  L 21.875 25  C 22.0572916666667 25  22.20703125 25.05859375  22.32421875 25.17578125  C 22.44140625 25.29296875  22.5 25.4427083333333  22.5 25.625  L 22.5 26.875  C 22.5 27.0572916666667  22.44140625 27.20703125  22.32421875 27.32421875  C 22.20703125 27.44140625  22.0572916666667 27.5  21.875 27  L 8.125 27  C 7.94270833333333 27.5  7.79296875 27.44140625  7.67578125 27.32421875  C 7.55859375 27.20703125  7.5 27.0572916666667  7.5 26.875  L 7.5 25.625  C 7.5 25.4427083333333  7.55859375 25.29296875  7.67578125 25.17578125  C 7.79296875 25.05859375  7.94270833333333 25  8.125 25  Z " fill-rule="nonzero" fill="#cd4c40" stroke="none" transform="matrix(1 0 0 1 585 88 )" />
  </g>
</svg>