<?xml version="1.0" encoding="utf-8"?>
<svg version="1.1" xmlns:xlink="http://www.w3.org/1999/xlink" width="40px" height="37px" xmlns="http://www.w3.org/2000/svg">
  <g transform="matrix(1 0 0 1 -744 -88 )">
    <path d="M 33.3854479855682 20.3132102272727  C 33.7061535377831 20.4533617424242  33.8665063138906 20.7073863636364  33.8665063138906 21.0752840909091  L 33.8665063138906 29.4318181818182  C 33.8665063138906 31.516571969697  33.1890158348366 33.2991240530303  31.8340348767288 34.7794744318182  C 30.479053918621 36.2598248106061  28.8474644217278 37  26.9392663860493 37  L 6.92723992784125 37  C 5.01904189216276 37  3.38745239526959 36.2598248106061  2.03247143716176 34.7794744318182  C 0.677490479053918 33.2991240530303  0 31.516571969697  0 29.4318181818182  L 0 7.56818181818182  C 0 5.48342803030303  0.677490479053918 3.7008759469697  2.03247143716176 2.22052556818182  C 3.38745239526959 0.740175189393936  5.01904189216276 0  6.92723992784125 0  L 26.9392663860493 0  C 27.9494888755262 0  28.8875526157547 0.21898674242424  29.7534576067348 0.656960227272725  C 29.993986770896 0.779592803030301  30.1383042693927 0.981060606060605  30.1864101022249 1.26136363636364  C 30.2345159350571 1.55918560606061  30.1623571858088 1.81321022727273  29.9699338544799 2.0234375  L 28.7913409500902 3.31107954545455  C 28.6309881739828 3.48626893939394  28.4465824814592 3.57386363636364  28.2381238725195 3.57386363636364  C 28.1900180396873 3.57386363636364  28.117859290439 3.5563446969697  28.0216476247745 3.52130681818182  C 27.6528362397274 3.41619318181818  27.2920424934857 3.36363636363636  26.9392663860493 4  L 6.92723992784125 4  C 5.86891160553217 3.36363636363636  4.96291842052516 3.77533143939394  4.2092603728202 4.59872159090909  C 3.45560232511525 5.42211174242424  3.07877330126278 6.41193181818182  3 7.56818181818182  L 3 29.4318181818182  C 3.07877330126278 30.5880681818182  3.45560232511525 31.5778882575758  4.2092603728202 32.4012784090909  C 4.96291842052516 33.2246685606061  5.86891160553217 33.6363636363636  6.92723992784125 33  L 26.9392663860493 33  C 27.9975947083584 33.6363636363636  28.9035878933654 33.2246685606061  29.6572459410704 32.4012784090909  C 30.4109039887753 31.5778882575758  30.7877330126278 30.5880681818182  30.7877330126278 29.4318181818182  L 30.7877330126278 22.7571022727273  C 30.7877330126278 22.5293560606061  30.8598917618761 22.3366477272727  31.0042092603728 22.1789772727273  L 32.5435959110042 20.4971590909091  C 32.7039486871116 20.3219696969697  32.8883543796352 20.234375  33.0968129885749 20.234375  C 33.1930246542393 20.234375  33.2892363199038 20.2606534090909  33.3854479855682 20.3132102272727  Z M 40 6.72727272727273  C 40 7.30539772727273  39.8075766686711 7.8046875  39.4227300060132 8.22514204545455  L 19.8436560432953 29.6157670454545  C 19.4588093806374 30.0362215909091  19.0018039687312 30.2464488636364  18.4726398075767 30.2464488636364  C 17.9434756464221 30.2464488636364  17.4864702345159 30.0362215909091  17.1016235718581 29.6157670454545  L 6.75886951292844 18.3160511363636  C 6.3740228502706 17.8955965909091  6.18159951894167 17.3963068181818  6.18159951894167 16.8181818181818  C 6.18159951894167 16.2400568181818  6.3740228502706 15.7407670454545  6.75886951292844 15.3203125  L 9.40469031870114 12.4296875  C 9.78953698135899 12.0092329545455  10.2465423932652 11.7990056818182  10.7757065544197 11.7990056818182  C 11.3048707155743 11.7990056818182  11.7618761274805 12.0092329545455  12.1467227901383 12.4296875  L 18.4726398075767 19.3409090909091  L 34.0348767288034 2.33877840909091  C 34.4197233914612 1.91832386363636  34.8767288033674 1.70809659090909  35.405892964522 1.70809659090909  C 35.9350571256765 1.70809659090909  36.3920625375827 1.91832386363636  36.7769092002405 2.33877840909091  L 39.4227300060132 5.22940340909091  C 39.8075766686711 5.64985795454546  40 6.14914772727273  40 6.72727272727273  Z " fill-rule="nonzero" fill="#cd4c40" stroke="none" transform="matrix(1 0 0 1 744 88 )" />
  </g>
</svg>