<?xml version="1.0" encoding="utf-8"?>
<svg version="1.1" xmlns:xlink="http://www.w3.org/1999/xlink" width="40px" height="33px" xmlns="http://www.w3.org/2000/svg">
  <g transform="matrix(1 0 0 1 -416 -236 )">
    <path d="M 3 30  L 40 30  L 40 33  L 0 33  L 0 0  L 3 0  L 3 30  Z M 37.32421875 2.943359375  C 37.44140625 3.072265625  37.5 3.23697916666666  37.5 3.4375  L 37.5 12.783203125  C 37.5 13.083984375  37.373046875 13.2952473958333  37.119140625 13.4169921875  C 36.865234375 13.5387369791667  36.6341145833333 13.4850260416667  36.42578125 13.255859375  L 34.0625 10.65625  L 21.69921875 24.255859375  C 21.5690104166667 24.3990885416667  21.4192708333333 24.470703125  21.25 24.470703125  C 21.0807291666667 24.470703125  20.9309895833333 24.3990885416667  20.80078125 24.255859375  L 16.25 19.25  L 8.125 28.1875  L 4.375 24.0625  L 15.80078125 11.494140625  C 15.9309895833333 11.3509114583333  16.0807291666667 11.279296875  16.25 11.279296875  C 16.4192708333333 11.279296875  16.5690104166667 11.3509114583333  16.69921875 11.494140625  L 21.25 16.5  L 30.3125 6.53125  L 27.94921875 3.931640625  C 27.7408854166667 3.70247395833333  27.6920572916667 3.4482421875  27.802734375 3.1689453125  C 27.9134114583333 2.8896484375  28.10546875 2.75  28.37890625 2.75  L 36.875 2.75  C 37.0572916666667 2.75  37.20703125 2.814453125  37.32421875 2.943359375  Z " fill-rule="nonzero" fill="#cd4c40" stroke="none" transform="matrix(1 0 0 1 416 236 )" />
  </g>
</svg>