<?xml version="1.0" encoding="utf-8"?>
<svg version="1.1" xmlns:xlink="http://www.w3.org/1999/xlink" width="40px" height="33px" xmlns="http://www.w3.org/2000/svg">
  <g transform="matrix(1 0 0 1 -580 -236 )">
    <path d="M 19.82421875 19.0244140625  C 19.94140625 19.7906901041667  20 20.6321614583333  20 21.548828125  C 20 22.4654947916667  19.7591145833333 23.2281901041667  19.27734375 23.8369140625  C 18.7955729166667 24.4456380208333  18.203125 24.75  17.5 24.75  L 7.5 24.75  C 6.796875 24.75  6.20442708333333 24.4456380208333  5.72265625 23.8369140625  C 5.24088541666667 23.2281901041667  5 22.4654947916667  5 21.548828125  C 5 20.6321614583333  5.05859375 19.7906901041667  5.17578125 19.0244140625  C 5.29296875 18.2581380208333  5.48502604166667 17.5205078125  5.751953125 16.8115234375  C 6.01888020833333 16.1025390625  6.41276041666667 15.5439453125  6.93359375 15.1357421875  C 7.45442708333333 14.7275390625  8.0859375 14.5234375  8.828125 14.5234375  C 8.90625 14.5807291666667  9.1015625 14.7096354166667  9.4140625 14.91015625  C 9.7265625 15.1106770833333  9.970703125 15.2646484375  10.146484375 15.3720703125  C 10.322265625 15.4794921875  10.5533854166667 15.6048177083333  10.83984375 15.748046875  C 11.1263020833333 15.8912760416667  11.40625 15.9951171875  11.6796875 16.0595703125  C 11.953125 16.1240234375  12.2265625 16.15625  12.5 16.15625  C 12.7734375 16.15625  13.046875 16.1240234375  13.3203125 16.0595703125  C 13.59375 15.9951171875  13.8736979166667 15.8912760416667  14.16015625 15.748046875  C 14.4466145833333 15.6048177083333  14.677734375 15.4794921875  14.853515625 15.3720703125  C 15.029296875 15.2646484375  15.2734375 15.1106770833333  15.5859375 14.91015625  C 15.8984375 14.7096354166667  16.09375 14.5807291666667  16.171875 14.5234375  C 16.9140625 14.5234375  17.5455729166667 14.7275390625  18.06640625 15.1357421875  C 18.5872395833333 15.5439453125  18.9811197916667 16.1025390625  19.248046875 16.8115234375  C 19.5149739583333 17.5205078125  19.70703125 18.2581380208333  19.82421875 19.0244140625  Z M 15.634765625 6.9287109375  C 16.5006510416667 7.88118489583333  16.93359375 9.03059895833333  16.93359375 10.376953125  C 16.93359375 11.7233072916667  16.5006510416667 12.8727213541667  15.634765625 13.8251953125  C 14.7688802083333 14.7776692708333  13.7239583333333 15.25390625  12.5 15.25390625  C 11.2760416666667 15.25390625  10.2311197916667 14.7776692708333  9.365234375 13.8251953125  C 8.49934895833333 12.8727213541667  8.06640625 11.7233072916667  8.06640625 10.376953125  C 8.06640625 9.03059895833333  8.49934895833333 7.88118489583333  9.365234375 6.9287109375  C 10.2311197916667 5.97623697916666  11.2760416666667 5.5  12.5 5.5  C 13.7239583333333 5.5  14.7688802083333 5.97623697916666  15.634765625 6.9287109375  Z M 34.82421875 19.443359375  C 34.94140625 19.572265625  35 19.7369791666667  35 19.9375  L 35 21.3125  C 35 21.5130208333333  34.94140625 21.677734375  34.82421875 21.806640625  C 34.70703125 21.935546875  34.5572916666667 22  34.375 22  L 23.125 22  C 22.9427083333333 22  22.79296875 21.935546875  22.67578125 21.806640625  C 22.55859375 21.677734375  22.5 21.5130208333333  22.5 21.3125  L 22.5 19.9375  C 22.5 19.7369791666667  22.55859375 19.572265625  22.67578125 19.443359375  C 22.79296875 19.314453125  22.9427083333333 19.25  23.125 19  L 34.375 19  C 34.5572916666667 19.25  34.70703125 19.314453125  34.82421875 19.443359375  Z M 34.794921875 13.9755859375  C 34.931640625 14.1259765625  35 14.30859375  35 14.5234375  L 35 15.7265625  C 35 15.94140625  34.931640625 16.1240234375  34.794921875 16.2744140625  C 34.658203125 16.4248046875  34.4921875 16.5  34.296875 16  L 23.203125 16  C 23.0078125 16.5  22.841796875 16.4248046875  22.705078125 16.2744140625  C 22.568359375 16.1240234375  22.5 15.94140625  22.5 15.7265625  L 22.5 14.5234375  C 22.5 14.30859375  22.568359375 14.1259765625  22.705078125 13.9755859375  C 22.841796875 13.8251953125  23.0078125 13.75  23.203125 14  L 34.296875 14  C 34.4921875 13.75  34.658203125 13.8251953125  34.794921875 13.9755859375  Z M 34.82421875 8.443359375  C 34.94140625 8.572265625  35 8.73697916666666  35 8.9375  L 35 10.3125  C 35 10.5130208333333  34.94140625 10.677734375  34.82421875 10.806640625  C 34.70703125 10.935546875  34.5572916666667 11  34.375 11  L 23.125 11  C 22.9427083333333 11  22.79296875 10.935546875  22.67578125 10.806640625  C 22.55859375 10.677734375  22.5 10.5130208333333  22.5 10.3125  L 22.5 8.9375  C 22.5 8.73697916666666  22.55859375 8.572265625  22.67578125 8.443359375  C 22.79296875 8.314453125  22.9427083333333 8.25  23.125 8.25  L 34.375 8.25  C 34.5572916666667 8.25  34.70703125 8.314453125  34.82421875 8.443359375  Z M 37.314453125 30.0458984375  C 37.4381510416667 29.9098307291667  37.5 29.7486979166667  37 29.5625  L 37 3.4375  C 37.5 3.25130208333333  37.4381510416667 3.09016927083333  37.314453125 2.9541015625  C 37.1907552083333 2.81803385416666  37.0442708333333 2.75  36.875 3  L 3.125 3  C 2.95572916666667 2.75  2.80924479166667 2.81803385416666  2.685546875 2.9541015625  C 2.56184895833333 3.09016927083333  2.5 3.25130208333333  3 3.4375  L 3 29.5625  C 2.5 29.7486979166667  2.56184895833333 29.9098307291667  2.685546875 30.0458984375  C 2.80924479166667 30.1819661458333  2.95572916666667 30.25  3.125 30.25  L 10 30.25  L 10 28.1875  C 10 27.9869791666667  10.05859375 27.822265625  10.17578125 27.693359375  C 10.29296875 27.564453125  10.4427083333333 27.5  10.625 27.5  L 11.875 27.5  C 12.0572916666667 27.5  12.20703125 27.564453125  12.32421875 27.693359375  C 12.44140625 27.822265625  12.5 27.9869791666667  12.5 28.1875  L 12.5 30  L 27.5 30  L 27.5 28.1875  C 27.5 27.9869791666667  27.55859375 27.822265625  27.67578125 27.693359375  C 27.79296875 27.564453125  27.9427083333333 27.5  28.125 27.5  L 29.375 27.5  C 29.5572916666667 27.5  29.70703125 27.564453125  29.82421875 27.693359375  C 29.94140625 27.822265625  30 27.9869791666667  30 28.1875  L 30 30.25  L 36.875 30.25  C 37.0442708333333 30.25  37.1907552083333 30.1819661458333  37.314453125 30.0458984375  Z M 39.08203125 1.009765625  C 39.6940104166667 1.68294270833333  40 2.4921875  40 3.4375  L 40 29.5625  C 40 30.5078125  39.6940104166667 31.3170572916667  39.08203125 31.990234375  C 38.4700520833333 32.6634114583333  37.734375 33  36.875 33  L 3.125 33  C 2.265625 33  1.52994791666667 32.6634114583333  0.91796875 31.990234375  C 0.305989583333333 31.3170572916667  0 30.5078125  0 29.5625  L 0 3.4375  C 0 2.4921875  0.305989583333333 1.68294270833333  0.91796875 1.009765625  C 1.52994791666667 0.336588541666663  2.265625 0  3.125 0  L 36.875 0  C 37.734375 0  38.4700520833333 0.336588541666663  39.08203125 1.009765625  Z " fill-rule="nonzero" fill="#cd4c40" stroke="none" transform="matrix(1 0 0 1 580 236 )" />
  </g>
</svg>