<?xml version="1.0" encoding="utf-8"?>
<svg version="1.1" xmlns:xlink="http://www.w3.org/1999/xlink" width="40px" height="37px" xmlns="http://www.w3.org/2000/svg">
  <g transform="matrix(1 0 0 1 -744 -233 )">
    <path d="M 0 7.92857142857143  L 20 0  L 40 7.92857142857143  L 40 10.5714285714286  L 37.3333333333333 10.5714285714286  C 37.3333333333333 10.9293154761905  37.1909722222222 11.239025297619  36.90625 11.5005580357143  C 36.6215277777778 11.7620907738095  36.2847222222222 11.8928571428571  35.8958333333333 12  L 4.10416666666667 12  C 3.71527777777778 11.8928571428571  3.37847222222222 11.7620907738095  3.09375 11.5005580357143  C 2.80902777777778 11.239025297619  2.66666666666667 10.9293154761905  2.66666666666667 10.5714285714286  L 0 10.5714285714286  L 0 7.92857142857143  Z M 6 29.0714285714286  L 6 13.2142857142857  L 11 13.2142857142857  L 11 29.0714285714286  L 14 29.0714285714286  L 14 13.2142857142857  L 19 13.2142857142857  L 19 29.0714285714286  L 21 29.0714285714286  L 21 13.2142857142857  L 26 13.2142857142857  L 26 29.0714285714286  L 29 29.0714285714286  L 29 13.2142857142857  L 34 13.2142857142857  L 34 29.0714285714286  L 35.8958333333333 29.0714285714286  C 36.2847222222222 29.0714285714286  36.6215277777778 29.2021949404762  36.90625 29.4637276785714  C 37.1909722222222 29.7252604166667  37.3333333333333 30.0349702380952  37.3333333333333 30.3928571428571  L 37.3333333333333 31  L 2.66666666666667 31  L 2.66666666666667 30.3928571428571  C 2.66666666666667 30.0349702380952  2.80902777777778 29.7252604166667  3.09375 29.4637276785714  C 3.37847222222222 29.2021949404762  3.71527777777778 29.0714285714286  4.10416666666667 29.0714285714286  L 6 29.0714285714286  Z M 1.4375 33  L 38.5625 33  C 38.9513888888889 33.0357142857143  39.2881944444444 33.1664806547619  39.5729166666667 33.4280133928571  C 39.8576388888889 33.6895461309524  40 33.999255952381  40 34.3571428571429  L 40 37  L 0 37  L 0 34.3571428571429  C 0 33.999255952381  0.142361111111111 33.6895461309524  0.427083333333333 33.4280133928571  C 0.711805555555556 33.1664806547619  1.04861111111111 33.0357142857143  1.4375 33  Z " fill-rule="nonzero" fill="#cd4c40" stroke="none" transform="matrix(1 0 0 1 744 233 )" />
  </g>
</svg>