<?xml version="1.0" encoding="utf-8"?>
<svg version="1.1" xmlns:xlink="http://www.w3.org/1999/xlink" width="38px" height="36px" xmlns="http://www.w3.org/2000/svg">
  <g transform="matrix(1 0 0 1 -417 -88 )">
    <path d="M 17.7219730941704 27  L 18.914798206278 27  L 21.3856502242152 24.0340909090909  L 18.1479820627803 20.1477272727273  L 15.6771300448431 23.1136363636364  L 15.6771300448431 24.5454545454545  L 17.7219730941704 24.5454545454545  L 17.7219730941704 27  Z M 28.2656950672646 9.43465909090909  C 28.5071001494768 9.14488636363636  28.5142002989537 8.86363636363636  28.2869955156951 8.59090909090909  C 28.0597907324365 8.31818181818181  27.825485799701 8.32670454545454  27.5840807174888 8.61647727272727  L 20.1289237668161 17.5653409090909  C 19.8875186846039 17.8551136363636  19.8804185351271 18.1363636363636  20.1076233183856 18.4090909090909  C 20.3348281016442 18.6818181818182  20.5691330343797 18.6732954545455  20.8105381165919 18.3835227272727  L 28.2656950672646 9.43465909090909  Z M 29.5650224215247 23.0369318181818  C 29.8490284005979 23.1732954545455  29.9910313901345 23.4204545454545  29.9910313901345 23.7784090909091  L 29.9910313901345 28.6363636363636  C 29.9910313901345 30.6647727272727  29.3910687593423 32.3991477272727  28.1911434977578 33.8394886363636  C 26.9912182361734 35.2798295454545  25.5463378176383 36  23.8565022421525 36  L 6.13452914798206 36  C 4.44469357249626 36  2.99981315396114 35.2798295454545  1.79988789237668 33.8394886363636  C 0.599962630792227 32.3991477272727  0 30.6647727272727  0 28.6363636363636  L 0 7.36363636363637  C 0 5.33522727272727  0.599962630792227 3.60085227272727  1.79988789237668 2.16051136363637  C 2.99981315396114 0.720170454545451  4.44469357249626 0  6.13452914798206 0  L 23.8565022421525 0  C 24.7511210762332 0  25.5818385650224 0.21306818181818  26.3486547085202 0.639204545454544  C 26.5616591928251 0.758522727272725  26.6894618834081 0.954545454545454  26.7320627802691 1.22727272727273  C 26.77466367713 1.51704545454545  26.7107623318386 1.76420454545454  26.5403587443946 1.96875  L 25.4966367713004 3.22159090909091  C 25.2978325859492 3.46022727272727  25.0706278026906 3.52840909090909  24.8150224215247 3.42613636363637  C 24.4884155455904 3.32386363636363  24.168908819133 3.27272727272727  23.8565022421525 3.27272727272727  L 6.13452914798206 3.27272727272727  C 5.19730941704036 3.27272727272727  4.39499252615845 3.67329545454545  3.72757847533632 4.47443181818182  C 3.0601644245142 5.27556818181818  2.72645739910314 6.23863636363637  3 7.36363636363637  L 3 28.6363636363636  C 2.72645739910314 29.7613636363636  3.0601644245142 30.7244318181818  3.72757847533632 31.5255681818182  C 4.39499252615845 32.3267045454545  5.19730941704036 32.7272727272727  6.13452914798206 32.7272727272727  L 23.8565022421525 32.7272727272727  C 24.7937219730942 32.7272727272727  25.5960388639761 32.3267045454545  26.2634529147982 31.5255681818182  C 26.9308669656203 30.7244318181818  27.2645739910314 29.7613636363636  27.2645739910314 28.6363636363636  L 27.2645739910314 25.4147727272727  C 27.2645739910314 25.1931818181818  27.3284753363229 25.0056818181818  27.4562780269058 24.8522727272727  L 28.8195067264574 23.2159090909091  C 29.0325112107623 22.9602272727273  29.2810164424514 22.9005681818182  29.5650224215247 23.0369318181818  Z M 13.6322869955157 22.0909090909091  L 27.9461883408072 4.90909090909091  L 34.0807174887892 12.2727272727273  L 19.7668161434978 29.4545454545455  L 13.6322869955157 29.4545454545455  L 13.6322869955157 22.0909090909091  Z M 38 6.54545454545454  C 38 7.22727272727272  37.8011958146487 7.80681818181818  37.4035874439462 8.28409090909091  L 35.4439461883408 10.6363636363636  L 29.3094170403587 3.27272727272727  L 31.2690582959641 0.920454545454544  C 31.6666666666667 0.443181818181815  32.1494768310912 0.204545454545456  32.7174887892377 0.204545454545456  C 33.2855007473842 0.204545454545456  33.7683109118087 0.443181818181815  34.1659192825112 0.920454545454544  L 37.4035874439462 4.80681818181818  C 37.8011958146487 5.2840909090909  38 5.86363636363636  38 6.54545454545454  Z " fill-rule="nonzero" fill="#cd4c40" stroke="none" transform="matrix(1 0 0 1 417 88 )" />
  </g>
</svg>